<svg xmlns="http://www.w3.org/2000/svg" xmlns:xlink="http://www.w3.org/1999/xlink" viewBox="0 0 100 125" version="1.1" x="0px" y="0px"><title>Artboard</title><desc>Created with Sketch.</desc><g stroke="none" stroke-width="1" fill="none" fill-rule="evenodd"><path d="M49.649635,53.6472019 C43.946472,53.5498783 39.3333333,51.5450122 35.946472,47.7104623 C28.4525547,39.2627737 29.6982968,24.7810219 29.8345499,23.3990268 C30.3211679,12.946472 35.3041363,7.98296837 39.3917275,5.66666667 C43.459854,3.35036496 47.703163,3 49.863747,3 L49.9805353,3 C50,3 50.0389294,3 50.0583942,3 L50.1946472,3 C54.1265207,3.07785888 57.649635,4.01216545 60.6666667,5.74452555 C64.7153285,8.06082725 69.620438,13.0243309 70.107056,23.3990268 C70.243309,24.7810219 71.4890511,39.2627737 63.9951338,47.7104623 C60.5888078,51.5450122 55.9756691,53.5498783 50.2725061,53.6472019 C50.2141119,53.6472019 50.136253,53.6472019 50.0778589,53.6472019 C50.0389294,53.6472019 50,53.6472019 49.9610706,53.6472019 C49.8442822,53.6472019 49.7469586,53.6472019 49.649635,53.6472019 Z M35.0316302,23.8856448 C35.0121655,24.0024331 33.6885645,37.296837 39.8588808,44.2262774 C42.2919708,46.9902676 45.5815085,48.3527981 49.863747,48.3917275 C49.9026764,48.3917275 49.9221411,48.3917275 49.9610706,48.3917275 C50,48.3917275 50.0194647,48.3917275 50.0583942,48.3917275 C54.3600973,48.3527981 57.6301703,46.9902676 60.0827251,44.2262774 C66.2725061,37.2579075 64.9099757,24.0218978 64.8905109,23.8856448 C64.8710462,23.8467153 64.8710462,23.7883212 64.8710462,23.729927 C64.2676399,10.5328467 55.3333333,8.39172749 50.0778589,8.27493917 C50.0194647,8.27493917 49.9610706,8.27493917 49.9221411,8.27493917 L49.8442822,8.27493917 C45.6009732,8.27493917 35.6934307,9.77372263 35.0510949,23.729927 C35.0510949,23.7688564 35.0316302,23.8272506 35.0316302,23.8856448 Z M89.9610706,77.6666667 C89.9805353,78.6788321 90,83.8759124 89.026764,86.4647202 C88.8321168,86.9708029 88.4622871,87.3990268 88.0145985,87.6909976 C87.4306569,88.0608273 73.4355231,96.9951338 50.0194647,96.9951338 C26.6034063,96.9951338 12.6082725,88.080292 12.0243309,87.6909976 C11.5571776,87.3990268 11.2068127,86.9708029 11.0121655,86.4647202 C9.98053528,83.8564477 10,78.6593674 10.0194647,77.6472019 C10.0194647,77.6277372 10.0194647,77.6082725 10.0194647,77.5888078 C10.0389294,77.43309 10.0389294,77.2773723 10.0389294,77.1021898 C10.1557178,73.2676399 10.4087591,64.2554745 18.8564477,61.3552311 C18.9148418,61.3357664 18.973236,61.3163017 19.0510949,61.296837 C27.8686131,59.0583942 35.1289538,53.9975669 35.2068127,53.9391727 C36.3941606,53.1021898 38.0291971,53.3941606 38.86618,54.5815085 C39.703163,55.7688564 39.4111922,57.4038929 38.2238443,58.2408759 C37.892944,58.4549878 30.1459854,63.86618 20.4525547,66.3576642 C15.9172749,67.973236 15.4111922,72.8199513 15.2749392,77.2579075 C15.2749392,77.43309 15.2554745,77.5888078 15.2554745,77.7445255 C15.216545,79.4963504 15.3527981,82.2019465 15.6642336,83.7591241 C18.836983,85.5498783 31.2749392,91.7591241 50,91.7591241 C68.8029197,91.7591241 81.163017,85.5693431 84.3163017,83.7785888 C84.6277372,82.2214112 84.7445255,79.5158151 84.7250608,77.7639903 C84.7055961,77.6082725 84.7055961,77.4525547 84.7055961,77.2773723 C84.5693431,72.8394161 84.0632603,67.9927007 79.5279805,66.377129 C69.8345499,63.8856448 62.0875912,58.4939173 61.756691,58.2603406 C60.5693431,57.4233577 60.2773723,55.7883212 61.1143552,54.6009732 C61.9513382,53.4136253 63.5863747,53.1216545 64.7737226,53.9586375 C64.8515815,54.0170316 72.1508516,59.0778589 80.9294404,61.3163017 C80.9878345,61.3357664 81.0656934,61.3552311 81.1240876,61.3746959 C89.5717762,64.2554745 89.8248175,73.2676399 89.9416058,77.1216545 C89.9416058,77.296837 89.9610706,77.4525547 89.9610706,77.6082725 C89.9610706,77.6277372 89.9610706,77.6472019 89.9610706,77.6666667 Z" fill="#000000" fill-rule="nonzero"/></g>
</svg>